<svg width="190" height="244" viewBox="0 0 190 244" fill="none" xmlns="http://www.w3.org/2000/svg">
<g clip-path="url(#clip0_530_90)">
<path d="M85.3036 62.8384C82.1144 66.7099 76.5419 74.633 78.5947 78.1508C80.6297 81.6284 83.6894 80.922 83.6894 80.922C83.6894 80.922 78.8586 87.5332 81.7258 91.8263C85.2685 97.1338 90.3433 94.4416 90.3433 94.4416C90.3433 94.4416 88.0418 99.7069 93.596 102.846C98.0915 105.388 104.331 100.085 104.331 100.085C104.331 100.085 103.85 103.193 107.475 104.96C111.135 106.746 118.617 100.606 122.24 97.1392C126.238 93.3116 172.416 44.8477 172.416 44.8477L132.736 8.01102C132.736 8.01102 88.8236 58.5672 85.3036 62.8384Z" fill="#DEB180"/>
<path d="M100.757 81.9335C106.61 87.366 116.147 87.903 115.927 81.9629C115.706 76.0229 110.172 78.3416 106.752 75.1658C103.525 72.1563 104.824 67.3538 100.338 66.6306C95.8531 65.9074 94.126 75.7763 100.757 81.9335Z" fill="#2D2B2C"/>
<path d="M109.081 101.622C110.795 102.957 112.777 101.611 114.191 99.6995C115.605 97.7878 115.683 95.7062 114.484 94.8095C113.285 93.9128 110.896 94.7048 109.274 96.6387C107.653 98.5727 107.688 100.539 109.081 101.622Z" fill="#2D2B2C"/>
<path d="M100.284 92.7325C99.0836 91.8345 96.6959 92.6278 95.0727 94.5631C93.4495 96.4985 93.4825 98.4645 94.8797 99.5463C96.5936 100.881 98.5752 99.5356 99.9907 97.6225C101.406 95.7094 101.482 93.6292 100.284 92.7325Z" fill="#2D2B2C"/>
<path d="M90.6974 83.8319C89.4987 82.9352 87.1083 83.7286 85.4878 85.6638C83.8673 87.5991 83.8976 89.5652 85.2948 90.647C87.0073 91.9807 88.9903 90.6363 90.4045 88.7246C91.8188 86.8129 91.8948 84.73 90.6974 83.8319Z" fill="#2D2B2C"/>
<path d="M82.8286 72.0832C81.211 74.0238 81.2384 75.9846 82.6356 77.0664C84.3481 78.4001 86.3311 77.0557 87.7467 75.1426C89.1623 73.2295 89.2369 71.148 88.0383 70.2513C86.8396 69.3546 84.4434 70.14 82.8286 72.0832Z" fill="#2D2B2C"/>
<g opacity="0.2">
<path opacity="0.2" d="M106.66 83.3418C110.541 84.7019 113.544 83.7509 113.478 81.9809C113.413 80.2108 109.387 81.6962 107.217 80.4411C105.18 79.2604 102.296 76.9051 101.35 77.558C99.7656 78.6501 102.47 81.8727 106.66 83.3418Z" fill="white"/>
<path opacity="0.2" d="M110.174 100.42C110.859 101.128 111.96 100.243 112.654 99.5896C113.229 99.0491 113.977 98.1906 113.512 97.6197C113.047 97.0488 112.146 97.8364 111.496 98.2283C110.847 98.6202 109.615 99.8416 110.174 100.42Z" fill="white"/>
<path opacity="0.2" d="M98.967 95.8755C98.5016 95.3019 97.6014 96.0922 96.9503 96.4855C96.2992 96.8788 95.0706 98.0974 95.6288 98.6759C96.3128 99.3849 97.4154 98.499 98.1092 97.8454C98.687 97.3021 99.4337 96.445 98.967 95.8755Z" fill="white"/>
<path opacity="0.2" d="M86.1014 89.6094C86.7854 90.3184 87.888 89.4325 88.5818 88.7789C89.1556 88.2398 89.9063 87.3812 89.4382 86.8104C88.9702 86.2396 88.0739 87.0257 87.4228 87.419C86.7717 87.8123 85.5418 89.0323 86.1014 89.6094Z" fill="white"/>
<path opacity="0.2" d="M83.2605 75.7193C83.9446 76.4283 85.0471 75.5424 85.7409 74.8887C86.3148 74.3496 87.0655 73.491 86.5987 72.9189C86.132 72.3467 85.2331 73.1355 84.582 73.5288C83.9309 73.9221 82.701 75.1422 83.2605 75.7193Z" fill="white"/>
</g>
<path d="M135.573 15.6914C133.826 14.049 131.973 12.5233 130.026 11.1242C128.071 13.379 125.184 16.7031 121.801 20.6018C128.111 26.2567 136.475 31.7321 138.375 32.8358C146.484 37.5491 155.523 40.6646 162.473 47.1226C163.71 48.2768 165.081 49.6361 166.409 51.1413C168.433 49.0189 170.053 47.3194 171.099 46.2229C169.218 45.2139 167.323 44.1712 165.465 42.9856C157.648 38.002 151.379 30.3758 144.587 24.058L135.573 15.6914Z" fill="#2D2B2C"/>
<path d="M112.118 31.771C113.531 35.303 116.906 37.8156 119.951 40.3928C130.062 48.9894 141.742 57.6755 150.354 67.9552C152.771 65.4281 155.143 62.9435 157.396 60.5842C155.005 58.2566 153.112 56.1785 152.476 55.4692C143.494 45.6234 133.055 27.7925 118.766 24.1032C116.638 26.5575 114.398 29.1397 112.118 31.771Z" fill="#2D2B2C"/>
<path d="M102.999 42.2948C99.9812 45.7815 97.0961 49.1151 94.5531 52.0594C96.3871 54.9246 98.5042 57.5985 100.873 60.0407C106.788 66.118 113.572 71.2387 120.392 76.2218C124.774 79.4266 129.588 82.0046 134.277 84.7368C136.716 82.2008 139.372 79.4283 142.115 76.5669C132.433 68.789 123.991 59.2703 114.515 51.2604C113.173 50.1167 108.119 45.7434 102.999 42.2948Z" fill="#2D2B2C"/>
</g>
<g clip-path="url(#clip1_530_90)">
<path d="M70.9958 121.885C70.9958 121.885 65.3507 116.225 64.0698 117.125C62.4724 118.239 67.2564 125.111 67.2564 125.111L70.9958 121.885Z" fill="#7A796E"/>
<path d="M55.5426 138.532C55.5426 138.532 48.0775 135.705 47.2736 137.058C46.2756 138.733 53.4705 143.012 53.4705 143.012L55.5426 138.532Z" fill="#7A796E"/>
<path d="M74.1977 186.664C74.1977 186.664 69.1914 192.882 67.8155 192.13C66.1078 191.19 70.1472 183.851 70.1472 183.851L74.1977 186.664Z" fill="#7A796E"/>
<path d="M57.0775 171.746C57.0775 171.746 49.9537 175.348 49.0097 174.088C47.8413 172.529 54.5424 167.511 54.5424 167.511L57.0775 171.746Z" fill="#7A796E"/>
<path d="M71.7612 120.005C59.5482 124.02 65.0871 135.187 65.0871 135.187C65.0871 135.187 53.1392 132.776 51.6989 141.781C50.542 149.019 55.7427 153.969 57.3787 154.863C55.9465 155.785 50.8377 162.268 53.6308 169.316C57.0552 177.955 66.8298 173.787 66.8298 173.787C66.8298 173.787 62.4213 185.454 74.9683 188.236C85.0386 190.474 85.7389 175.726 90.1842 174.94C94.6295 174.153 153.206 177.674 153.206 177.674L150.656 122.78C150.656 122.78 92.724 132.072 88.2222 131.73C83.7204 131.387 81.5688 116.783 71.7612 120.005Z" fill="#FCF0E3"/>
<path d="M71.6421 153.925C71.9074 162.021 78.3204 169.274 82.4347 164.875C86.5491 160.475 80.937 158.143 80.7818 153.407C80.6352 148.933 85.0246 146.444 82.3454 142.693C79.6662 138.941 71.3416 144.756 71.6421 153.925Z" fill="#1A1A1A"/>
<path d="M72.4984 178.541C71.2217 180.758 71.588 182.713 73.1696 183.553C75.1124 184.585 76.8532 182.907 77.9348 180.747C79.0164 178.587 78.7315 176.499 77.383 175.809C76.0344 175.119 73.7766 176.313 72.4984 178.541Z" fill="#1A1A1A"/>
<path d="M65.2142 162.269C64.2609 161.088 61.7144 161.265 59.6441 162.768C57.5739 164.272 57.1128 166.206 58.2139 167.617C59.5675 169.354 61.8473 168.535 63.708 167.004C65.5687 165.472 66.1654 163.451 65.2142 162.269Z" fill="#1A1A1A"/>
<path d="M70.7575 125.902C69.3366 126.99 69.2984 128.979 70.9231 130.957C72.5478 132.935 74.9672 133.754 76.1853 132.845C77.4034 131.936 77.3366 129.837 75.9213 127.883C74.506 125.93 72.5055 124.564 70.7575 125.902Z" fill="#1A1A1A"/>
<path d="M57.0634 143.466C56.2102 145.041 56.98 146.873 59.2734 148.014C61.5668 149.156 64.1034 148.911 64.8478 147.588C65.5922 146.265 64.6721 144.369 62.5855 143.17C60.4988 141.971 58.1154 141.534 57.0634 143.466Z" fill="#1A1A1A"/>
<path d="M93.6606 170.828C95.1671 170.867 96.6755 170.901 98.1809 170.963C99.3369 171.013 100.662 170.987 101.766 171.307C102.375 171.482 103.062 171.053 103.205 170.58C103.381 170.02 102.944 169.587 102.336 169.411C101.104 169.061 99.617 169.088 98.3242 169.029C96.7502 168.956 95.1717 168.924 93.5968 168.883C92.063 168.846 92.1365 170.79 93.6608 170.834L93.6606 170.828Z" fill="#2D2B2C"/>
<path d="M100.025 166.597C101.472 166.389 102.92 166.179 104.375 166.009C105.463 165.879 107.094 165.677 107.93 165.783C109.434 165.976 110.019 164.08 108.5 163.887C107.194 163.719 105.834 163.893 104.533 164.039C103.002 164.208 101.483 164.434 99.9609 164.652C99.3205 164.743 98.7856 165.081 98.8048 165.666C98.8204 166.144 99.3824 166.692 100.025 166.602L100.025 166.597Z" fill="#2D2B2C"/>
<path d="M96.0026 160.075C96.9511 159.862 97.8714 159.564 98.7944 159.288C99.2829 159.141 99.7754 158.996 100.268 158.861C100.461 158.804 100.672 158.752 100.877 158.704C100.96 158.684 101.046 158.665 101.129 158.649C101.481 158.575 100.92 158.656 101.191 158.647C102.717 158.544 102.659 156.599 101.127 156.696C100.223 156.757 99.3339 157.067 98.4881 157.318C97.4356 157.63 96.39 157.972 95.3101 158.221C93.8254 158.553 94.5199 160.407 96.0026 160.075Z" fill="#2D2B2C"/>
<path d="M93.4261 149.163C96.7098 149.166 99.9625 148.7 103.24 148.581C104.773 148.531 104.709 146.58 103.176 146.631C99.8986 146.75 96.6459 147.216 93.3622 147.212C91.8275 147.21 91.8971 149.154 93.4261 149.163Z" fill="#2D2B2C"/>
<path d="M107.033 152.999C109.3 152.794 111.613 152.849 113.837 152.352C115.319 152.017 114.625 150.163 113.142 150.497C111.141 150.953 109.021 150.868 106.974 151.054C105.457 151.192 105.511 153.137 107.038 153.005L107.033 152.999Z" fill="#2D2B2C"/>
<path d="M109.704 143.563C111.123 143.019 112.775 142.85 114.317 142.897C115.859 142.944 115.774 141 114.253 140.946C112.273 140.883 110.301 141.213 108.449 141.917C108.324 141.967 108.212 142.045 108.121 142.146C108.031 142.246 107.965 142.366 107.928 142.496C107.891 142.625 107.885 142.762 107.909 142.895C107.933 143.028 107.988 143.153 108.068 143.262C108.441 143.749 109.114 143.784 109.704 143.556L109.704 143.563Z" fill="#2D2B2C"/>
<path d="M93.7909 140.939C95.807 140.58 97.5193 139.34 99.604 139.227C101.132 139.142 101.072 137.197 99.54 137.276C97.181 137.404 95.3527 138.675 93.0962 139.079C91.5958 139.347 92.2981 141.201 93.7907 140.933L93.7909 140.939Z" fill="#2D2B2C"/>
<path d="M112.312 135.016C115.14 134.257 118.114 134.045 120.986 133.433C122.475 133.119 121.776 131.259 120.291 131.579C117.421 132.185 114.445 132.403 111.619 133.16C110.16 133.552 110.847 135.408 112.312 135.016Z" fill="#2D2B2C"/>
<path d="M124.804 143.461C127.071 143.25 129.324 142.936 131.608 142.848C133.139 142.797 133.077 140.847 131.544 140.897C129.264 140.983 127.01 141.297 124.74 141.51C123.224 141.652 123.276 143.597 124.804 143.461Z" fill="#2D2B2C"/>
<path d="M111.875 160.367C113.885 160.428 115.892 160.489 117.904 160.429C119.437 160.379 119.374 158.44 117.84 158.479C115.828 158.544 113.822 158.477 111.811 158.416C110.279 158.371 110.354 160.315 111.875 160.367Z" fill="#2D2B2C"/>
<path d="M109.234 171.71C111.333 171.923 113.353 172.462 115.452 172.678C116.956 172.824 117.54 170.936 116.022 170.783C113.923 170.571 111.903 170.031 109.805 169.815C108.299 169.669 107.717 171.557 109.234 171.71Z" fill="#2D2B2C"/>
<path d="M118.927 167.412C121.357 167.2 123.788 166.991 126.198 166.655C126.839 166.565 127.374 166.226 127.355 165.64C127.339 165.162 126.777 164.616 126.134 164.704C123.724 165.041 121.293 165.253 118.863 165.462C117.344 165.593 117.398 167.541 118.927 167.412Z" fill="#2D2B2C"/>
<path d="M132.676 170.718C135.557 170.51 138.435 170.705 141.212 169.883C142.655 169.459 141.972 167.601 140.52 168.029C137.951 168.787 135.273 168.58 132.612 168.773C131.089 168.883 131.145 170.828 132.676 170.723L132.676 170.718Z" fill="#2D2B2C"/>
<path d="M128.238 161.13C130.744 161.024 133.156 160.445 135.487 159.689C136.907 159.227 136.228 157.368 134.792 157.835C132.659 158.528 130.472 159.088 128.174 159.185C126.643 159.249 126.705 161.186 128.238 161.136L128.238 161.13Z" fill="#2D2B2C"/>
<path d="M120.546 153.949C122.897 153.501 125.269 153.175 127.653 152.972C129.171 152.836 129.117 150.891 127.589 151.021C124.994 151.244 122.412 151.601 119.854 152.089C118.358 152.38 119.058 154.232 120.546 153.943L120.546 153.949Z" fill="#2D2B2C"/>
<path d="M131.614 148.005C133.702 147.341 136.463 147.221 138.587 147.776C140.045 148.16 140.601 146.259 139.159 145.881C136.685 145.232 133.357 145.376 130.922 146.151C129.496 146.606 130.175 148.464 131.614 148.005Z" fill="#2D2B2C"/>
<path d="M138.492 154.564C140.504 154.498 142.585 154.172 144.526 154.722C145.136 154.897 145.822 154.47 145.965 153.993C146.141 153.436 145.706 152.998 145.096 152.824C142.954 152.221 140.646 152.536 138.428 152.619C136.895 152.669 136.959 154.62 138.492 154.57L138.492 154.564Z" fill="#2D2B2C"/>
<path d="M141.954 163.405C143.719 163.198 145.403 162.692 147.156 162.453C147.797 162.365 148.333 162.024 148.314 161.438C148.298 160.959 147.735 160.419 147.092 160.502C145.345 160.737 143.649 161.246 141.89 161.454C141.247 161.528 140.714 161.883 140.734 162.468C140.75 162.958 141.311 163.476 141.954 163.405Z" fill="#2D2B2C"/>
<path d="M145.998 170.669C147.301 170.627 148.68 170.646 149.954 170.376C151.442 170.061 150.745 168.201 149.26 168.522C149.018 168.573 148.362 168.619 147.934 168.643C147.269 168.683 146.602 168.704 145.934 168.726C144.401 168.777 144.465 170.727 145.998 170.677L145.998 170.669Z" fill="#2D2B2C"/>
<path d="M142.752 145.207C143.963 144.565 145.367 144.281 146.706 143.878C148.144 143.44 147.461 141.586 146.013 142.022C144.478 142.486 142.887 142.833 141.497 143.566C140.201 144.251 141.452 145.892 142.752 145.207Z" fill="#2D2B2C"/>
<path d="M135.117 137.393C135.229 137.304 134.893 137.512 135.18 137.372C135.294 137.323 135.284 137.323 135.153 137.373C135.253 137.334 135.358 137.301 135.46 137.271C135.845 137.156 136.237 137.062 136.632 136.99C137.604 136.809 138.584 136.677 139.569 136.595C140.607 136.497 141.655 136.439 142.699 136.424C143.496 136.414 143.901 136.385 144.56 136.558C146.014 136.948 146.568 135.048 145.13 134.661C144.353 134.454 143.447 134.478 142.636 134.483C141.466 134.492 140.299 134.575 139.133 134.69C137.96 134.796 136.794 134.965 135.639 135.195C134.842 135.36 133.985 135.587 133.383 136.071C132.279 136.959 134.009 138.275 135.107 137.382L135.117 137.393Z" fill="#2D2B2C"/>
<path d="M144.114 132.283C145.003 132.122 145.901 132.017 146.803 131.968C148.333 131.904 148.272 129.967 146.739 130.017C145.626 130.082 144.518 130.216 143.421 130.419C143.286 130.44 143.156 130.489 143.041 130.564C142.925 130.639 142.827 130.737 142.752 130.853C142.678 130.968 142.628 131.098 142.607 131.234C142.587 131.37 142.594 131.509 142.631 131.642C142.844 132.187 143.48 132.381 144.114 132.275L144.114 132.283Z" fill="#2D2B2C"/>
<path d="M124.167 137.098C124.979 136.306 126.308 135.979 127.363 135.458C128.683 134.808 127.431 133.167 126.108 133.818C124.858 134.445 123.412 134.836 122.443 135.778C121.473 136.72 123.173 138.068 124.167 137.098Z" fill="#2D2B2C"/>
<path d="M98.2036 135.248C100.112 135.166 101.984 134.761 103.9 134.804C105.434 134.835 105.36 132.891 103.836 132.853C101.92 132.81 100.048 133.215 98.1397 133.299C96.6093 133.365 96.6707 135.3 98.2036 135.25L98.2036 135.248Z" fill="#2D2B2C"/>
<g opacity="0.26">
<path opacity="0.26" d="M74.5811 159.408C76.3698 163.175 79.195 164.659 80.4195 163.347C81.6439 162.036 77.7073 160.198 77.0632 157.739C76.4591 155.429 76.1019 151.67 74.9542 151.453C73.0392 151.092 72.6501 155.341 74.5811 159.408Z" fill="#F08641"/>
<path opacity="0.26" d="M74.2743 182.992C75.0532 183.616 76.0527 182.58 76.6602 181.839C77.1684 181.223 77.8098 180.267 77.2702 179.749C76.7307 179.232 75.9182 180.141 75.3235 180.62C74.7289 181.098 73.6394 182.481 74.2743 182.992Z" fill="#F08641"/>
<path opacity="0.26" d="M59.0831 167.114C59.4585 168.039 60.835 167.619 61.7263 167.27C62.4694 166.978 63.4955 166.456 63.2751 165.741C63.0547 165.025 61.9 165.428 61.1514 165.552C60.4028 165.676 58.7756 166.359 59.0831 167.114Z" fill="#F08641"/>
<path opacity="0.26" d="M57.8221 144.545C57.2503 145.362 58.349 146.285 59.1259 146.846C59.773 147.313 60.7688 147.891 61.2493 147.319C61.7297 146.747 60.7712 146.001 60.2533 145.43C59.7355 144.859 58.2877 143.877 57.8221 144.545Z" fill="#F08641"/>
<path opacity="0.26" d="M70.9846 127.114C70.1954 127.725 70.9664 128.94 71.5414 129.706C72.0206 130.345 72.7971 131.194 73.4274 130.791C74.0576 130.388 73.364 129.391 73.0407 128.691C72.7175 127.99 71.6292 126.614 70.9846 127.114Z" fill="#F08641"/>
</g>
</g>
<g clip-path="url(#clip2_530_90)">
<path d="M8.14966 84.347C8.14966 84.347 1.83757 88.5668 2.43859 89.9359C3.18204 91.6325 10.4671 88.4254 10.4671 88.4254L8.14966 84.347Z" fill="#2D2B2C"/>
<path d="M20.8138 101.835C20.8138 101.835 16.8035 108.281 17.9157 109.282C19.2923 110.519 24.6072 104.592 24.6072 104.592L20.8138 101.835Z" fill="#2D2B2C"/>
<path d="M69.0987 93.2844C69.0987 93.2844 73.976 99.1038 73.0166 100.249C71.829 101.66 65.733 96.5501 65.733 96.5501L69.0987 93.2844Z" fill="#2D2B2C"/>
<path d="M52.0443 106.525C52.0443 106.525 54.0874 113.836 52.7409 114.473C51.0618 115.276 47.6312 108.09 47.6312 108.09L52.0443 106.525Z" fill="#2D2B2C"/>
<path d="M6.53972 83.2818C8.03099 95.4177 19.4623 92.3057 19.4623 92.3057C19.4623 92.3057 15.0136 103.013 23.1393 106.014C29.6715 108.426 35.2413 104.483 36.3751 103.122C36.9695 104.628 42.0692 110.589 49.1537 109.279C57.833 107.676 55.7506 97.7852 55.7506 97.7852C55.7506 97.7852 65.8031 104.049 70.713 92.8476C74.6529 83.8625 61.0409 80.4952 61.1285 76.2008C61.2161 71.9063 75.2879 17.8971 75.2879 17.8971L23.6699 10.1699C23.6699 10.1699 21.6541 65.9485 20.5076 70.0866C19.361 74.2246 5.34419 73.5421 6.53972 83.2818Z" fill="#FDBF12"/>
<path d="M38.1175 89.6466C45.7085 90.8891 53.6492 86.2407 50.3091 81.5905C46.9689 76.9404 44.8275 74.7766 40.3911 74.0513C36.1951 73.3643 33.6172 75.7819 29.6288 77.5911C25.6404 79.4004 29.5281 88.2362 38.1175 89.6466Z" fill="#2D2B2C"/>
<path d="M61.2162 93.3753C63.0485 94.977 64.9372 94.9938 66.0104 93.6735C67.3309 92.0488 66.0976 90.1115 64.2737 88.7092C62.4499 87.3069 60.4635 87.1846 59.5706 88.3172C58.6778 89.4497 59.3836 91.7755 61.2162 93.3753Z" fill="#2D2B2C"/>
<path d="M44.7144 97.1787C43.4455 97.8521 43.1328 100.261 44.1529 102.47C45.1729 104.679 46.8914 105.464 48.4086 104.696C50.2756 103.752 49.9323 101.475 48.8477 99.4537C47.7632 97.4323 45.9908 96.5082 44.7144 97.1787Z" fill="#2D2B2C"/>
<path d="M11.8489 85.3108C12.6014 86.8378 14.4472 87.2318 16.5884 86.0887C18.7296 84.9457 19.9357 82.8284 19.3182 81.5238C18.7006 80.2192 16.7277 79.8945 14.6461 80.8571C12.5646 81.8197 10.924 83.4308 11.8489 85.3108Z" fill="#2D2B2C"/>
<path d="M25.695 101.326C27.0035 102.414 28.8541 102.029 30.3389 100.102C31.8237 98.1755 32.0648 95.7593 30.9699 94.8205C29.875 93.8816 27.939 94.3906 26.4319 96.1178C24.9249 97.845 24.0844 99.988 25.695 101.326Z" fill="#2D2B2C"/>
<path d="M53.6614 50.4553C47.9306 51.2777 48.2035 60.2432 50.2478 63.8862C52.1465 67.2838 57.9801 69.837 62.4761 69.2016C63.5995 64.2003 65.3291 57.0893 67.1615 49.7408C65.2625 50.7181 63.3175 51.7757 61.2823 52.0297C58.5449 52.3797 56.1584 50.0965 53.6614 50.4553Z" fill="#2D2B2C"/>
<path d="M21.9709 49.966C27.4573 50.5637 32.0503 50.0238 37.1288 46.6531C42.3948 43.1583 47.4331 39.7939 53.1731 37.1092C57.4202 35.1286 59.4747 33.0843 60.2251 28.4903C60.824 24.8028 61.3059 20.0155 60.6004 15.7046L23.6667 10.1774C23.6667 10.1774 22.8555 32.5105 21.9709 49.966Z" fill="#2D2B2C"/>
<g opacity="0.33">
<path opacity="0.33" d="M43.6452 88.1194C47.4842 87.1422 49.3981 84.7707 48.3917 83.3941C47.3852 82.0175 44.9554 85.3465 42.5459 85.4932C40.2828 85.6321 36.7139 85.275 36.3002 86.3052C35.6107 88.0267 39.4997 89.1711 43.6452 88.1194Z" fill="#DEB180"/>
<path opacity="0.33" d="M65.5627 92.745C66.2888 92.1359 65.5056 91.0113 64.9294 90.3034C64.4489 89.7163 63.6754 88.9425 63.0943 89.3492C62.5133 89.756 63.2101 90.6766 63.5447 91.3264C63.8793 91.9763 64.9711 93.2446 65.5627 92.745Z" fill="#DEB180"/>
<path opacity="0.33" d="M47.9707 104.001C48.9001 103.821 48.7675 102.458 48.6016 101.562C48.4665 100.816 48.1686 99.7622 47.4594 99.8375C46.7502 99.9128 46.9167 101.053 46.8926 101.786C46.8684 102.519 47.2084 104.149 47.9707 104.001Z" fill="#DEB180"/>
<path opacity="0.33" d="M26.7063 101.023C27.3632 101.7 28.4323 100.862 29.0986 100.231C29.651 99.7168 30.3748 98.8914 29.9292 98.3365C29.4836 97.7816 28.6136 98.5402 27.9855 98.9171C27.3574 99.2939 26.1688 100.465 26.7063 101.023Z" fill="#DEB180"/>
<path opacity="0.33" d="M12.8882 85.5311C13.3128 86.3738 14.5884 85.8839 15.4076 85.4876C16.0922 85.1577 17.0269 84.5884 16.7665 83.927C16.5061 83.2655 15.4499 83.73 14.7396 83.9013C14.0292 84.0727 12.5452 84.8271 12.8882 85.5311Z" fill="#DEB180"/>
</g>
</g>
<defs>
<clipPath id="clip0_530_90">
<rect width="54.1412" height="96.4698" fill="white" transform="translate(106.624 115.391) rotate(-136.998)"/>
</clipPath>
<clipPath id="clip1_530_90">
<rect width="75.2458" height="104.652" fill="white" transform="translate(48.9941 192.821) rotate(-91.877)"/>
</clipPath>
<clipPath id="clip2_530_90">
<rect width="71.475" height="99.6053" fill="white" transform="translate(70.835 117.029) rotate(-172.328)"/>
</clipPath>
</defs>
</svg>
