<svg width="260" height="64" viewBox="0 0 260 64" fill="none" xmlns="http://www.w3.org/2000/svg">
<path d="M82.0979 0H87.657V47.9496C87.6636 48.6511 87.5349 49.3467 87.2785 49.995C87.0221 50.6433 86.6433 51.2309 86.1647 51.7227C85.7078 52.2329 85.1544 52.6382 84.5396 52.9128C83.9249 53.1874 83.2622 53.3253 82.5937 53.3177H77.5256V50.2673C74.4459 52.2105 70.9198 53.2441 67.3227 53.2579C64.6474 53.2989 61.9926 52.7663 59.5219 51.693C57.0512 50.6197 54.8171 49.0285 52.9575 47.0175C51.0629 45.0444 49.5602 42.6991 48.5358 40.1166C47.5114 37.5342 46.9854 34.7654 46.9883 31.9697C46.9895 29.1798 47.5166 26.4175 48.5393 23.8406C49.562 21.2637 51.0603 18.9227 52.9486 16.9513C54.837 14.9799 57.0783 13.4168 59.5447 12.3513C62.011 11.2858 64.654 10.7387 67.3227 10.7413C70.9092 10.7479 74.4299 11.7489 77.5256 13.6422V4.78499C77.5256 3.51679 78.0072 2.30047 78.8645 1.40325C79.7218 0.506035 80.8848 0.00132104 82.0979 0ZM77.5256 32.2887V31.6357C77.4918 29.8009 76.988 28.0091 76.0667 26.447C75.163 24.8977 73.8983 23.6132 72.3908 22.7137C70.8365 21.8027 69.0834 21.3271 67.3016 21.3333C65.5197 21.3394 63.7697 21.8269 62.2212 22.7486C60.6812 23.6832 59.401 25.0215 58.5071 26.6314C57.3729 28.6605 56.9144 31.0255 57.2034 33.3562C57.4925 35.6868 58.5127 37.8514 60.1043 39.511C61.9918 41.5113 64.5619 42.646 67.2495 42.6657C69.9371 42.6853 72.5221 41.5882 74.4361 39.6157C75.3873 38.6673 76.1499 37.5318 76.6801 36.2744C77.2102 35.017 77.4976 33.6625 77.5256 32.2887Z" fill="#FCF0E3"/>
<path d="M97.9129 16.9821C101.732 12.9929 106.907 10.7487 112.306 10.7412C117.705 10.7338 122.886 12.9636 126.715 16.9422C128.647 18.8826 130.176 21.2175 131.209 23.8018C132.241 26.3861 132.755 29.1647 132.717 31.9651C132.758 34.7673 132.25 37.5486 131.223 40.1375C130.197 42.7263 128.674 45.0679 126.748 47.0179C124.858 48.9959 122.613 50.5651 120.142 51.6357C117.671 52.7063 115.022 53.2573 112.347 53.2573C109.672 53.2573 107.024 52.7063 104.553 51.6357C102.082 50.5651 99.8369 48.9959 97.9463 47.0179C96.0199 45.0686 94.4963 42.7272 93.4696 40.1381C92.4429 37.5491 91.935 34.7675 91.9771 31.9651C91.9268 29.175 92.428 26.4042 93.4494 23.826C94.4708 21.2478 95.9903 18.9179 97.9129 16.9821ZM105.126 39.5463C106.068 40.5378 107.189 41.324 108.423 41.8594C109.658 42.3949 110.982 42.6689 112.318 42.6657C113.655 42.6624 114.978 42.382 116.21 41.8405C117.442 41.2991 118.559 40.5074 119.496 39.5114C120.457 38.5305 121.217 37.3558 121.73 36.0586C122.243 34.7614 122.498 33.3687 122.481 31.9651C122.423 29.1859 121.327 26.5409 119.427 24.5966C117.526 22.6524 114.973 21.5636 112.314 21.5636C109.655 21.5636 107.102 22.6524 105.201 24.5966C103.301 26.5409 102.204 29.1859 102.147 31.9651C102.132 33.3748 102.391 34.7729 102.906 36.0757C103.421 37.3784 104.183 38.5589 105.146 39.5463H105.126Z" fill="#FCF0E3"/>
<path d="M177.605 27.6477C178.255 30.8508 178.172 34.1693 177.361 37.3323C176.624 40.3496 175.262 43.1607 173.371 45.5665C171.478 47.9239 169.124 49.8293 166.467 51.154C163.485 52.6708 160.189 53.3855 156.876 53.2332C153.563 53.0809 150.339 52.0664 147.496 50.2817V58.6255C147.504 59.3272 147.376 60.0232 147.119 60.6717C146.863 61.3202 146.483 61.9076 146.004 62.3987C145.537 62.9158 144.972 63.3252 144.344 63.6007C143.717 63.8762 143.042 64.0118 142.361 63.9987H137.351V10.666H147.496V13.6566C149.937 12.0974 152.676 11.1201 155.519 10.7945C158.363 10.4688 161.239 10.8028 163.945 11.7725C167.381 12.9079 170.462 14.9874 172.865 17.7937C175.29 20.5541 176.931 23.9665 177.605 27.6477ZM150.467 39.5454C151.899 41.0311 153.72 42.0404 155.7 42.446C157.681 42.8516 159.731 42.6355 161.594 41.8248C163.457 41.0142 165.049 39.6452 166.169 37.8905C167.289 36.1357 167.887 34.0737 167.888 31.9642C167.888 29.1353 166.813 26.4222 164.9 24.4218C162.986 22.4215 160.391 21.2977 157.685 21.2977C154.979 21.2977 152.384 22.4215 150.47 24.4218C148.557 26.4222 147.482 29.1353 147.482 31.9642C147.466 33.3728 147.722 34.7703 148.235 36.073C148.748 37.3757 149.507 38.5567 150.467 39.5454Z" fill="#FCF0E3"/>
<path d="M249.646 37.5869H259.711C259.733 40.3979 259.039 43.1644 257.699 45.6017C256.383 48.0174 254.463 50.0128 252.144 51.3736C249.823 52.7638 247.191 53.4893 244.516 53.477C242.792 53.4838 241.079 53.189 239.448 52.6048C236.476 51.5117 233.903 49.4785 232.087 46.7873C230.27 44.0961 229.3 40.8805 229.312 37.5869V0.204164H234.308C235.212 0.199541 236.1 0.451025 236.878 0.931881C237.653 1.40639 238.298 2.08087 238.752 2.89073C239.21 3.7062 239.449 4.63631 239.443 5.58229V11.0302H259.711V21.5322H239.443V38.6735C239.699 39.9816 240.411 41.1437 241.441 41.9343C242.47 42.7249 243.744 43.0877 245.014 42.9523C246.285 42.817 247.463 42.1932 248.318 41.2018C249.174 40.2105 249.647 38.9222 249.646 37.5869Z" fill="#FCF0E3"/>
<path d="M30.5399 10.666V13.6566C27.4445 11.7627 23.9236 10.7616 20.337 10.7557C17.6661 10.7117 15.0147 11.2376 12.5448 12.3011C10.0748 13.3647 7.83829 14.9436 5.97182 16.9413C4.04444 18.8835 2.51988 21.2194 1.49297 23.8039C0.466066 26.3883 -0.0412361 29.166 0.00261915 31.9642C-0.0394921 34.7666 0.468489 37.5482 1.49518 40.1372C2.52187 42.7263 4.04546 45.0677 5.97182 47.017C7.83107 49.0284 10.0651 50.62 12.5359 51.6933C15.0066 52.7667 17.6617 53.299 20.337 53.2574C24.0923 53.2559 27.7716 52.1505 30.9547 50.0674C31.3761 50.9876 32.0224 51.7751 32.8284 52.3502C33.6418 52.9482 34.6137 53.2654 35.608 53.2574H40.7V10.666H30.5399ZM23.9795 25.654C24.2274 23.8546 25.6006 22.6634 27.0452 23.0422C28.4898 23.421 29.4576 25.1356 29.2097 26.93C28.9618 28.7244 27.5887 29.9206 26.1441 29.5418C24.6995 29.163 23.7316 27.4484 23.9795 25.654ZM18.1105 19.588C19.4073 18.6709 21.1809 19.279 22.0724 20.9438C22.964 22.6085 22.6398 24.7119 21.343 25.6291C20.0462 26.5462 18.2773 25.9431 17.3858 24.2733C16.4942 22.6036 16.8184 20.535 18.1105 19.588ZM11.4785 22.5786C12.7754 21.6615 14.549 22.2646 15.4405 23.9344C16.3321 25.6041 16.0079 27.7026 14.7111 28.6197C13.4142 29.5368 11.6454 28.9337 10.7538 27.2639C9.86228 25.5942 10.1865 23.5257 11.4785 22.5986V22.5786ZM13.2569 35.3735C12.5179 36.7193 10.7634 36.9685 9.33783 35.9317C7.91228 34.895 7.35922 32.9411 8.09822 31.6203C8.83722 30.2994 10.5917 30.0253 12.0173 31.062C13.4428 32.0988 14.0007 34.0477 13.2569 35.3934V35.3735ZM29.1716 38.8625C27.3789 40.298 24.7471 38.6432 22.573 39.6102C20.3704 40.4924 19.5694 43.5977 17.3285 43.8619C15.0877 44.126 13.3713 41.579 15.4215 36.9436C16.7564 33.8234 16.3845 31.1517 18.8495 30.0352C21.362 29.0384 22.8734 31.2464 25.9677 32.5274C30.5113 34.3716 30.9642 37.452 29.1716 38.8825V38.8625Z" fill="#FCF0E3"/>
<path d="M212.099 37.906C211.064 39.7581 209.498 41.2229 207.622 42.0929C205.752 42.9914 203.662 43.2614 201.639 42.8655C199.663 42.5068 197.83 41.5562 196.361 40.129L223.094 27.6133L222.779 26.1678C222.744 25.8993 222.681 25.6353 222.593 25.3803C222.432 24.7723 222.228 24.1775 221.983 23.6009C221.16 21.638 220.032 19.8309 218.645 18.2527C215.851 14.8115 212.04 12.442 207.813 11.5188C203.555 10.5014 199.095 10.9833 195.126 12.8895C192.477 14.1171 190.109 15.9242 188.184 18.1889C186.259 20.4536 184.82 23.1233 183.965 26.0183C183.135 28.8718 182.882 31.8744 183.221 34.8357C183.624 38.353 184.878 41.705 186.864 44.5751C188.687 47.2911 191.096 49.5202 193.896 51.0819C196.697 52.6436 199.809 53.4941 202.982 53.5645C206.156 53.6349 209.3 52.9232 212.161 51.487C215.022 50.0508 217.52 47.9306 219.451 45.2978C221.055 43.0911 222.235 40.5811 222.927 37.906H212.099ZM195.355 25.5199C196.36 24.1719 197.671 23.1079 199.169 22.4246C200.662 21.7118 202.299 21.3934 203.937 21.4975C205.547 21.6022 207.114 22.0825 208.524 22.9031L193.324 30.0058C193.675 28.3716 194.368 26.8393 195.355 25.5199Z" fill="#FCF0E3"/>
</svg>
