<svg width="24" height="19" viewBox="0 0 24 19" fill="none" xmlns="http://www.w3.org/2000/svg">
<path d="M1.73542 18.8632C1.27264 18.8632 0.867709 18.6864 0.520625 18.3327C0.173542 17.979 0 17.5664 0 17.0948V1.76843C0 1.29685 0.173542 0.884214 0.520625 0.530528C0.867709 0.176843 1.27264 0 1.73542 0H21.4035C21.8663 0 22.2712 0.176843 22.6183 0.530528C22.9654 0.884214 23.1389 1.29685 23.1389 1.76843V17.0948C23.1389 17.5664 22.9654 17.979 22.6183 18.3327C22.2712 18.6864 21.8663 18.8632 21.4035 18.8632H1.73542ZM11.5695 9.96214L1.73542 3.38949V17.0948H21.4035V3.38949L11.5695 9.96214ZM11.5695 8.19372L21.2878 1.76843H1.88004L11.5695 8.19372ZM1.73542 3.38949V1.76843V3.38949V17.0948V3.38949Z" fill="white"/>
</svg>
