<svg width="87" height="417" viewBox="0 0 87 417" fill="none" xmlns="http://www.w3.org/2000/svg">
<path d="M29.531 154.5C22.331 94.1 63.531 37 85.031 16V397.5C12.231 376.3 2.34024 324.784 22.031 295.5C53.2982 249 36.731 214.9 29.531 154.5Z" fill="#36D6AD"/>
<path d="M85.031 1C49.8027 21 6.80266 95.5 13.531 154.5C20.2593 213.5 42.9098 236.095 13.531 286.5C-12.6973 331.5 -1.769 392.8 85.031 416M85.031 16C63.531 37 22.331 94.1 29.531 154.5C36.731 214.9 53.2982 249 22.031 295.5C2.34024 324.784 12.231 376.3 85.031 397.5V16Z" stroke="#36D6AD" stroke-width="2"/>
</svg>
